<?xml version="1.0" encoding="iso-8859-1"?>
<!-- Generator: Adobe Illustrator 18.0.0, SVG Export Plug-In . SVG Version: 6.00 Build 0)  -->
<!DOCTYPE svg PUBLIC "-//W3C//DTD SVG 1.1//EN" "http://www.w3.org/Graphics/SVG/1.1/DTD/svg11.dtd">
<svg version="1.1" id="Capa_1" xmlns="http://www.w3.org/2000/svg" xmlns:xlink="http://www.w3.org/1999/xlink" x="0px" y="0px"
	 viewBox="0 0 363.374 363.374" style="enable-background:new 0 0 363.374 363.374;" xml:space="preserve">
<g>
	<path d="M126.455,244.32H71.076c-2.209,0-4,1.791-4,4v20.584c0,2.209,1.791,4,4,4h55.379c2.209,0,4-1.791,4-4V248.32
		C130.455,246.111,128.664,244.32,126.455,244.32z M122.455,264.904H75.076V252.32h47.379V264.904z"/>
	<path d="M60.147,244.32H4.767c-2.209,0-4,1.791-4,4v20.584c0,2.209,1.791,4,4,4h55.379c2.209,0,4-1.791,4-4V248.32
		C64.147,246.111,62.356,244.32,60.147,244.32z M56.147,264.904H8.767V252.32h47.379V264.904z"/>
	<path d="M192.763,244.32h-55.379c-2.209,0-4,1.791-4,4v20.584c0,2.209,1.791,4,4,4h55.379c2.209,0,4-1.791,4-4V248.32
		C196.763,246.111,194.972,244.32,192.763,244.32z M188.763,264.904h-47.379V252.32h47.379V264.904z"/>
	<path d="M259.071,244.32h-55.38c-2.209,0-4,1.791-4,4v20.584c0,2.209,1.791,4,4,4h55.38c2.209,0,4-1.791,4-4V248.32
		C263.071,246.111,261.28,244.32,259.071,244.32z M255.071,264.904h-47.38V252.32h47.38V264.904z"/>
	<path d="M325.379,244.32H270c-2.209,0-4,1.791-4,4v20.584c0,2.209,1.791,4,4,4h55.379c2.209,0,4-1.791,4-4V248.32
		C329.379,246.111,327.588,244.32,325.379,244.32z M321.379,264.904H274V252.32h47.379V264.904z"/>
	<path d="M359.374,252.32c2.209,0,4-1.791,4-4s-1.791-4-4-4h-23.066c-2.209,0-4,1.791-4,4v20.584c0,2.209,1.791,4,4,4h23.066
		c2.209,0,4-1.791,4-4c0-2.209-1.791-4-4-4h-19.066V252.32H359.374z"/>
	<path d="M37.995,242.134h55.379c2.209,0,4-1.791,4-4v-20.583c0-2.209-1.791-4-4-4H37.995c-2.209,0-4,1.791-4,4v20.583
		C33.995,240.343,35.786,242.134,37.995,242.134z M41.995,221.551h47.379v12.583H41.995V221.551z"/>
	<path d="M4,234.134c-2.209,0-4,1.791-4,4c0,2.209,1.791,4,4,4h23.066c2.209,0,4-1.791,4-4v-20.583c0-2.209-1.791-4-4-4H4
		c-2.209,0-4,1.791-4,4c0,2.209,1.791,4,4,4h19.066v12.583H4z"/>
	<path d="M104.303,242.134h55.379c2.209,0,4-1.791,4-4v-20.583c0-2.209-1.791-4-4-4h-55.379c-2.209,0-4,1.791-4,4v20.583
		C100.303,240.343,102.094,242.134,104.303,242.134z M108.303,221.551h47.379v12.583h-47.379V221.551z"/>
	<path d="M170.611,242.134h55.379c2.209,0,4-1.791,4-4v-20.583c0-2.209-1.791-4-4-4h-55.379c-2.209,0-4,1.791-4,4v20.583
		C166.611,240.343,168.402,242.134,170.611,242.134z M174.611,221.551h47.379v12.583h-47.379V221.551z"/>
	<path d="M236.919,242.134h55.38c2.209,0,4-1.791,4-4v-20.583c0-2.209-1.791-4-4-4h-55.38c-2.209,0-4,1.791-4,4v20.583
		C232.919,240.343,234.71,242.134,236.919,242.134z M240.919,221.551h47.38v12.583h-47.38V221.551z"/>
	<path d="M299.228,217.551v20.583c0,2.209,1.791,4,4,4h55.379c2.209,0,4-1.791,4-4v-20.583c0-2.209-1.791-4-4-4h-55.379
		C301.019,213.551,299.228,215.342,299.228,217.551z M307.228,221.551h47.379v12.583h-47.379V221.551z"/>
	<path d="M130.455,207.363V186.78c0-2.209-1.791-4-4-4H71.076c-2.209,0-4,1.791-4,4v20.583c0,2.209,1.791,4,4,4h55.379
		C128.664,211.363,130.455,209.572,130.455,207.363z M122.455,203.363H75.076V190.78h47.379V203.363z"/>
	<path d="M0.767,186.78v20.583c0,2.209,1.791,4,4,4h55.379c2.209,0,4-1.791,4-4V186.78c0-2.209-1.791-4-4-4H4.767
		C2.559,182.78,0.767,184.571,0.767,186.78z M8.767,190.78h47.379v12.583H8.767V190.78z"/>
	<path d="M196.763,207.363V186.78c0-2.209-1.791-4-4-4h-55.379c-2.209,0-4,1.791-4,4v20.583c0,2.209,1.791,4,4,4h55.379
		C194.972,211.363,196.763,209.572,196.763,207.363z M188.763,203.363h-47.379V190.78h47.379V203.363z"/>
	<path d="M263.071,207.363V186.78c0-2.209-1.791-4-4-4h-55.38c-2.209,0-4,1.791-4,4v20.583c0,2.209,1.791,4,4,4h55.38
		C261.28,211.363,263.071,209.572,263.071,207.363z M255.071,203.363h-47.38V190.78h47.38V203.363z"/>
	<path d="M325.379,182.78H270c-2.209,0-4,1.791-4,4v20.583c0,2.209,1.791,4,4,4h55.379c2.209,0,4-1.791,4-4V186.78
		C329.379,184.571,327.588,182.78,325.379,182.78z M321.379,203.363H274V190.78h47.379V203.363z"/>
	<path d="M359.374,190.78c2.209,0,4-1.791,4-4c0-2.209-1.791-4-4-4h-23.066c-2.209,0-4,1.791-4,4v20.583c0,2.209,1.791,4,4,4h23.066
		c2.209,0,4-1.791,4-4c0-2.209-1.791-4-4-4h-19.066V190.78H359.374z"/>
	<path d="M37.995,180.594h55.379c2.209,0,4-1.791,4-4V156.01c0-2.209-1.791-4-4-4H37.995c-2.209,0-4,1.791-4,4v20.584
		C33.995,178.803,35.786,180.594,37.995,180.594z M41.995,160.01h47.379v12.584H41.995V160.01z"/>
	<path d="M4,172.594c-2.209,0-4,1.791-4,4s1.791,4,4,4h23.066c2.209,0,4-1.791,4-4V156.01c0-2.209-1.791-4-4-4H4
		c-2.209,0-4,1.791-4,4c0,2.209,1.791,4,4,4h19.066v12.584H4z"/>
	<path d="M100.303,156.01v20.584c0,2.209,1.791,4,4,4h55.379c2.209,0,4-1.791,4-4V156.01c0-2.209-1.791-4-4-4h-55.379
		C102.094,152.01,100.303,153.801,100.303,156.01z M108.303,160.01h47.379v12.584h-47.379V160.01z"/>
	<path d="M170.611,180.594h55.379c2.209,0,4-1.791,4-4V156.01c0-2.209-1.791-4-4-4h-55.379c-2.209,0-4,1.791-4,4v20.584
		C166.611,178.803,168.402,180.594,170.611,180.594z M174.611,160.01h47.379v12.584h-47.379V160.01z"/>
	<path d="M292.299,180.594c2.209,0,4-1.791,4-4V156.01c0-2.209-1.791-4-4-4h-55.38c-2.209,0-4,1.791-4,4v20.584c0,2.209,1.791,4,4,4
		H292.299z M240.919,160.01h47.38v12.584h-47.38V160.01z"/>
	<path d="M362.606,176.594V156.01c0-2.209-1.791-4-4-4h-55.379c-2.209,0-4,1.791-4,4v20.584c0,2.209,1.791,4,4,4h55.379
		C360.815,180.594,362.606,178.803,362.606,176.594z M354.606,172.594h-47.379V160.01h47.379V172.594z"/>
	<path d="M67.076,125.24v20.583c0,2.209,1.791,4,4,4h55.379c2.209,0,4-1.791,4-4V125.24c0-2.209-1.791-4-4-4H71.076
		C68.867,121.24,67.076,123.031,67.076,125.24z M75.076,129.24h47.379v12.583H75.076V129.24z"/>
	<path d="M64.147,145.823V125.24c0-2.209-1.791-4-4-4H4.767c-2.209,0-4,1.791-4,4v20.583c0,2.209,1.791,4,4,4h55.379
		C62.356,149.823,64.147,148.032,64.147,145.823z M56.147,141.823H8.767V129.24h47.379V141.823z"/>
	<path d="M203.691,149.823h55.38c2.209,0,4-1.791,4-4V125.24c0-2.209-1.791-4-4-4h-55.38c-2.209,0-4,1.791-4,4v20.583
		C199.691,148.032,201.482,149.823,203.691,149.823z M207.691,129.24h47.38v12.583h-47.38V129.24z"/>
	<path d="M270,149.823h55.379c2.209,0,4-1.791,4-4V125.24c0-2.209-1.791-4-4-4H270c-2.209,0-4,1.791-4,4v20.583
		C266,148.032,267.791,149.823,270,149.823z M274,129.24h47.379v12.583H274V129.24z"/>
	<path d="M359.374,141.823h-19.066V129.24h19.066c2.209,0,4-1.791,4-4s-1.791-4-4-4h-23.066c-2.209,0-4,1.791-4,4v20.583
		c0,2.209,1.791,4,4,4h23.066c2.209,0,4-1.791,4-4S361.583,141.823,359.374,141.823z"/>
	<path d="M37.995,119.054h55.379c2.209,0,4-1.791,4-4V94.47c0-2.209-1.791-4-4-4H37.995c-2.209,0-4,1.791-4,4v20.584
		C33.995,117.263,35.786,119.054,37.995,119.054z M41.995,98.47h47.379v12.584H41.995V98.47z"/>
	<path d="M4,111.054c-2.209,0-4,1.791-4,4s1.791,4,4,4h23.066c2.209,0,4-1.791,4-4V94.47c0-2.209-1.791-4-4-4H4
		c-2.209,0-4,1.791-4,4s1.791,4,4,4h19.066v12.584H4z"/>
	<path d="M303.228,119.054h55.379c2.209,0,4-1.791,4-4V94.47c0-2.209-1.791-4-4-4h-55.379c-2.209,0-4,1.791-4,4v20.584
		C299.228,117.263,301.019,119.054,303.228,119.054z M307.228,98.47h47.379v12.584h-47.379V98.47z"/>
</g>
<g>
</g>
<g>
</g>
<g>
</g>
<g>
</g>
<g>
</g>
<g>
</g>
<g>
</g>
<g>
</g>
<g>
</g>
<g>
</g>
<g>
</g>
<g>
</g>
<g>
</g>
<g>
</g>
<g>
</g>
</svg>
