<svg xmlns="http://www.w3.org/2000/svg" width="750" height="250" viewBox="0 0 198.437 66.146"><g transform="matrix(.37101 0 0 .37591 -82.598 -79.657)"><circle style="opacity:1;fill:#1f1f21;fill-opacity:1;fill-rule:nonzero;stroke:#acc7d2;stroke-width:0;stroke-linecap:round;stroke-linejoin:round;stroke-miterlimit:4;stroke-dasharray:none;stroke-opacity:1;paint-order:normal" cx="391.258" cy="225.637" r="10.72"/><text xml:space="preserve" style="font-style:normal;font-variant:normal;font-weight:700;font-stretch:normal;font-size:12.69999981px;line-height:1.25;font-family:Quicksand;-inkscape-font-specification:'Quicksand Bold';letter-spacing:0;word-spacing:0;fill:#fff;fill-opacity:1;stroke:none;stroke-width:.26458332" x="387.153" y="229.869"><tspan x="387.153" y="229.869" style="font-style:normal;font-variant:normal;font-weight:700;font-stretch:normal;font-family:'Franklin Gothic Book';-inkscape-font-specification:'Franklin Gothic Book, Bold';fill:#fff;fill-opacity:1;stroke-width:.26458332">R</tspan></text></g><path d="m-20.661 406.712-.376 16.365-2.903.031a58.227 58.227 0 0 0-2.179-5.543c-.825-1.905-1.72-3.482-2.683-4.732-1.05-1.343-2.28-2.403-3.688-3.181-1.408-.802-3.08-1.192-5.014-1.171-2.43.026-4.449.76-6.057 2.2-1.585 1.441-2.418 3.212-2.5 5.314-.077 1.985.523 3.6 1.801 4.847 1.301 1.246 3.35 2.332 6.148 3.26 1.642.565 3.318 1.13 5.027 1.695a88.313 88.313 0 0 1 4.558 1.632c3.211 1.272 5.616 3.055 7.213 5.348 1.62 2.27 2.365 5.11 2.232 8.518-.083 2.149-.648 4.232-1.693 6.25-1.046 2.019-2.416 3.702-4.11 5.051-1.857 1.49-3.982 2.645-6.375 3.465a22.905 22.905 0 0 1-4.302.996 26.394 26.394 0 0 0 4.96.483 26.394 26.394 0 0 0 26.395-26.394 26.394 26.394 0 0 0-16.454-24.435z" style="opacity:1;fill:#1f1f21;fill-opacity:1;fill-rule:nonzero;stroke:#acc7d2;stroke-width:0;stroke-linecap:round;stroke-linejoin:round;stroke-miterlimit:4;stroke-dasharray:none;stroke-opacity:1;paint-order:normal" transform="matrix(1.1922 0 0 1.20794 69.157 -487.86)"/><path d="M-56.387 425.579a26.394 26.394 0 0 0-.609 5.567 26.394 26.394 0 0 0 2.79 11.79l.136.277a26.394 26.394 0 0 0 7.628 9.005c.104.063.208.126.313.187 1.672.962 3.644 1.431 5.916 1.407 3.06-.033 5.43-.83 7.11-2.388 1.702-1.582 2.6-3.552 2.692-5.91.075-1.938-.56-3.553-1.903-4.846-1.32-1.316-3.413-2.437-6.278-3.363a2260.96 2260.96 0 0 1-5.163-1.695 84.925 84.925 0 0 1-4.39-1.598c-3.166-1.296-5.488-3.173-6.966-5.631a14.235 14.235 0 0 1-1.276-2.802z" style="opacity:1;fill:#95b9b7;fill-opacity:.94117647;fill-rule:nonzero;stroke:#acc7d2;stroke-width:0;stroke-linecap:round;stroke-linejoin:round;stroke-miterlimit:4;stroke-dasharray:none;stroke-opacity:1;paint-order:normal" transform="matrix(1.1922 0 0 1.20794 69.157 -487.86)"/><g><text xml:space="preserve" style="font-style:normal;font-variant:normal;font-weight:400;font-stretch:normal;font-size:12.38001919px;line-height:1.25;font-family:'Franklin Gothic Book';-inkscape-font-specification:'Franklin Gothic Book, Normal';font-variant-ligatures:normal;font-variant-caps:normal;font-variant-numeric:normal;font-feature-settings:normal;text-align:start;letter-spacing:0;word-spacing:0;writing-mode:lr-tb;text-anchor:start;fill:#505050;fill-opacity:1;stroke:none;stroke-width:.31682581" x="16.223" y="605.412" transform="matrix(1.20192 0 0 1.1077 84.068 -621.34)"><tspan x="16.223" y="605.412" style="font-style:normal;font-variant:normal;font-weight:400;font-stretch:normal;font-size:12.38001919px;font-family:'Franklin Gothic Book';-inkscape-font-specification:'Franklin Gothic Book, Normal';font-variant-ligatures:normal;font-variant-caps:normal;font-variant-numeric:normal;font-feature-settings:normal;text-align:start;writing-mode:lr-tb;text-anchor:start;fill:#505050;fill-opacity:1;stroke-width:.31682581">Consulting</tspan></text><text xml:space="preserve" style="font-style:normal;font-variant:normal;font-weight:400;font-stretch:normal;font-size:21.66503143px;line-height:1.25;font-family:'Franklin Gothic Book';-inkscape-font-specification:'Franklin Gothic Book, Normal';font-variant-ligatures:normal;font-variant-caps:normal;font-variant-numeric:normal;font-feature-settings:normal;text-align:start;letter-spacing:0;word-spacing:0;writing-mode:lr-tb;text-anchor:start;fill:#000;fill-opacity:1;stroke:none;stroke-width:.28464827" x="-6.932" y="551.755" transform="matrix(1.12509 0 0 1.18334 84.068 -621.34)"><tspan x="-6.932" y="551.755" style="font-style:normal;font-variant:normal;font-weight:400;font-stretch:normal;font-size:21.66503143px;font-family:'Franklin Gothic Book';-inkscape-font-specification:'Franklin Gothic Book, Normal';font-variant-ligatures:normal;font-variant-caps:normal;font-variant-numeric:normal;font-feature-settings:normal;text-align:start;writing-mode:lr-tb;text-anchor:start;fill:#000;fill-opacity:1;stroke-width:.28464827">Stella Ebam</tspan></text></g></svg>