<svg width="162.13mm" height="54.708mm" version="1.1" viewBox="0 0 162.13 54.708" xmlns="http://www.w3.org/2000/svg">
 <g transform="translate(-26.935 -78.83)">
  <flowRoot fill="#000000" font-family="Quicksand" font-size="40px" letter-spacing="0px" word-spacing="0px" style="line-height:1.25" xml:space="preserve"><flowRegion><rect x="531.43" y="-800.34" width="77.143" height="622.86"/></flowRegion><flowPara/></flowRoot>
  <g transform="translate(-176.51 -455.14)" font-family="Quicksand" letter-spacing="0px" word-spacing="0px">
   <text transform="scale(1.0683 .93607)" x="249.87152" y="617.57172" fill="#a0a0a0" font-size="20.704px" stroke-width=".27729" style="line-height:1.25" xml:space="preserve"><tspan x="249.87152" y="617.57172" fill="#a0a0a0" font-family="'Franklin Gothic Book'" stroke-width=".27729">Consulting</tspan></text>
   <text x="268.51041" y="554.12915" fill="#ffffff" font-size="19.381px" stroke-width=".25956" style="line-height:1.25" xml:space="preserve"><tspan x="268.51041" y="554.12915" fill="#ffffff" font-family="'Franklin Gothic Book'" stroke-width=".25956">Stella Ebam</tspan></text>
  </g>
  <flowRoot fill="#000000" font-family="Quicksand" font-size="40px" letter-spacing="0px" word-spacing="0px" style="line-height:1.25" xml:space="preserve"><flowRegion><rect x="-422.86" y="1851.1" width="320" height="277.14"/></flowRegion><flowPara/></flowRoot>
  <g transform="matrix(.8621 0 0 .8945 83.631 -275.73)">
   <g>
    <circle cx="-6.0644" cy="400.25" r="3.87" fill="#fff" stroke-width="0" style="paint-order:normal"/>
    <text x="-7.54636" y="401.77698" fill="#000000" font-family="Quicksand" font-size="4.5847px" letter-spacing="0px" stroke-width=".095514" word-spacing="0px" style="line-height:1.25" xml:space="preserve"><tspan x="-7.54636" y="401.77698" fill="#000000" font-family="'Franklin Gothic Book'" stroke-width=".095514">R</tspan></text>
    <path d="m-23.616 398.58-0.43653 18.984-3.3667 0.0363c-0.70071-2.1042-1.5433-4.2475-2.5279-6.4298-0.95746-2.2097-1.9949-4.0397-3.1124-5.4896-1.2176-1.5572-2.6438-2.7871-4.2782-3.69-1.6333-0.92996-3.5721-1.3829-5.8164-1.3586-2.8185 0.0305-5.1605 0.88149-7.0255 2.5531-1.8389 1.6714-2.8058 3.7258-2.9007 6.1634-0.08959 2.3023 0.60709 4.1764 2.0899 5.6224 1.5089 1.4457 3.886 2.706 7.1311 3.781 1.9049 0.6563 3.8488 1.3123 5.8319 1.9677 1.9832 0.65544 3.7456 1.2861 5.2872 1.8922 3.7251 1.4759 6.514 3.5441 8.367 6.2045 1.8801 2.633 2.7432 5.9267 2.5893 9.8812-0.09699 2.4919-0.75172 4.9084-1.9646 7.2499-1.2128 2.3414-2.8019 4.2944-4.7671 5.8588-2.1542 1.7289-4.6193 3.0686-7.3954 4.019-1.5298 0.52377-3.1937 0.90837-4.99 1.1555a30.618 30.618 0 0 0 5.7541 0.56077 30.618 30.618 0 0 0 30.618-30.618 30.618 30.618 0 0 0-19.087-28.344z" fill="#fdfdff" stroke-width="0" style="paint-order:normal"/>
   </g>
   <path d="m-65.058 420.46a30.618 30.618 0 0 0-0.70628 6.4582 30.618 30.618 0 0 0 3.2361 13.676c0.05158 0.10686 0.10543 0.21499 0.15801 0.32235a30.618 30.618 0 0 0 8.8486 10.446c0.12023 0.0738 0.2412 0.14625 0.36302 0.21733 1.9391 1.1162 4.2268 1.66 6.8626 1.6316 3.5493-0.0383 6.298-0.96142 8.2466-2.7693 1.9757-1.8353 3.0169-4.1207 3.1234-6.8563 0.08749-2.2481-0.64824-4.1218-2.2073-5.6211-1.5319-1.5267-3.9596-2.827-7.2829-3.9011-2.1637-0.70765-4.16-1.3631-5.9886-1.966-1.8026-0.60325-3.5003-1.2212-5.093-1.8538-3.6719-1.5036-6.3653-3.6811-8.0804-6.5324-0.61444-1.0374-1.1073-2.1211-1.4799-3.2506z" fill="#95b9b7" fill-opacity=".94118" stroke-width="0" style="paint-order:normal"/>
  </g>
 </g>
</svg>
